<svg width="1439" height="564" viewBox="0 0 1439 564" fill="none" xmlns="http://www.w3.org/2000/svg">
<path d="M1417.77 0C1410.66 7.4691 1404.46 14.8974 1402.45 25.7719C1400.73 35.113 1402.25 45.0611 1406.8 53.4089C1411.68 62.3479 1420.25 67.3278 1428.76 72.3092C1432.15 74.2976 1436.32 77.1904 1438.88 80.6975V0H1417.77ZM1438.88 93.4008C1434.99 98.5508 1427.77 101.423 1421.97 103.411C1410.03 107.502 1391.74 117.945 1399.46 133.448C1403.5 141.552 1414.16 144.912 1422.61 143.086C1428.83 141.744 1433.54 137.688 1438.88 134.67V93.4008Z" fill="#53C2BE"/>
<path d="M1263.91 263.057C1263.91 263.057 1262.59 267.542 1262.59 267.55C1260.46 274.783 1258.35 282.026 1255.93 289.167C1253.89 295.182 1252.22 301.402 1249.89 307.306C1246.21 316.64 1239.82 324.909 1231.68 330.785C1227.7 333.656 1224.59 334.099 1220.2 335.565C1214.88 337.338 1210.08 341.878 1210.22 347.848C1210.43 356.744 1219.7 359.189 1227.05 357.064C1234.74 354.835 1238.05 347.012 1243.81 342.208C1252.5 334.972 1263.27 339.771 1272.85 342.027C1285.08 344.907 1296.1 340.451 1298.89 327.144C1300.86 317.787 1296.81 308.781 1297.69 299.603C1298.66 289.584 1303.7 280.29 1310.26 272.818C1326.41 254.408 1359.1 242.335 1359.12 213.82C1359.12 201.675 1352.34 188.46 1339.79 185.563C1326.65 182.534 1312.55 187.129 1302.07 195.163C1280.93 211.369 1271.17 238.449 1263.91 263.057Z" fill="#53C2BE"/>
<path d="M1420.49 212.69C1424.73 214.837 1429.25 216.359 1434 216.954C1435.62 217.157 1437.25 217.38 1438.88 217.59V179.728C1436.36 179.503 1433.83 179.104 1431.3 178.329C1415.96 173.635 1408.73 161.015 1398.02 150.405C1387.39 139.86 1372.97 133.812 1358.6 130.379C1352.32 128.881 1345.87 127.868 1339.51 126.954C1334.29 126.205 1326.35 126.686 1322.33 130.503C1318.08 134.535 1318.34 141.045 1322.01 145.294C1328.22 152.476 1338.25 152.903 1346.8 154.992C1353.62 156.658 1361.03 158.526 1367.35 161.655C1372.48 164.191 1377.01 168.524 1380.9 172.681C1389.22 181.554 1395.66 192.029 1404.28 200.623C1409 205.326 1414.46 209.638 1420.49 212.69Z" fill="#53C2BE"/>
<path d="M1288.86 6.67967C1271.02 -0.843103 1240.96 -0.439088 1229.24 17.6237C1220.43 31.2077 1226.72 48.2836 1238.27 57.8836C1242.49 61.386 1247.05 63.9327 1252.59 63.238C1259.02 62.4315 1264.58 58.5888 1271.09 58.5061C1276.43 58.438 1281.77 59.553 1286.63 61.7557C1291.46 63.9463 1296.82 65.1263 1301.96 63.0207C1305.35 61.6302 1308.15 58.2702 1311.86 57.3476C1316.1 56.2901 1319.75 60.7594 1323.86 58.9823C1335.59 53.9143 1321.03 34.5556 1317.19 29.2397C1310.01 19.3037 1300.01 11.3837 1288.86 6.67967Z" fill="#53C2BE"/>
<path d="M1250.76 76.4664C1246.75 74.941 1241.9 75.6104 1238.68 79.0225C1235.37 82.5292 1234.8 88.3186 1237.37 92.4024C1240.7 97.713 1248.85 99.2626 1253.75 95.2079C1257.19 92.3691 1258.63 87.432 1257.27 83.1773C1256.2 79.8986 1253.71 77.5893 1250.76 76.4664Z" fill="#33809F"/>
<path d="M1215.98 27.7273C1213.07 21.5595 1202.54 21.4779 1197.84 25.6901C1188.41 34.1287 1204.78 45.7727 1213.49 38.8115C1217.18 35.8661 1217.65 31.2619 1215.98 27.7273Z" fill="#33809F"/>
<path d="M1223.48 135.603C1226.46 142.324 1233.15 147.965 1239.99 151.518C1248.68 156.031 1258.66 158.096 1268.42 157.58C1279.47 156.998 1295.68 151.767 1299.12 139.749C1302.85 126.721 1286.3 117.291 1276.54 113.223C1268.21 109.75 1259.04 108.06 1250.02 108.499C1242.2 108.88 1229.98 110.838 1225.25 117.932C1221.09 124.174 1221.1 130.234 1223.48 135.603Z" fill="#2B374E"/>
<path d="M1332.02 8.32807C1326.14 13.1576 1323.13 21.2775 1324.63 29.3657C1326.78 40.9428 1333.52 50.8307 1337.9 61.5774C1340.01 66.7762 1340.94 72.5415 1340.76 78.1484C1340.48 86.9041 1337.76 97.8084 1345.69 104.302C1352.98 110.271 1362.13 101.4 1366.91 96.3911C1373.83 89.1536 1378.49 79.9256 1381.31 70.3815C1385.02 57.7817 1384.54 43.8749 1379.36 31.8016C1375.23 22.1777 1367.7 13.2683 1358.6 8.01777C1354.07 5.40574 1348.92 3.68682 1343.65 3.91359C1339.12 4.10975 1335.16 5.74968 1332.02 8.32807Z" fill="#2B374E"/>
<path d="M9.3344 2L9.5555 2.88064C11.09 9.04316 13.041 15.183 14.2727 21.4071C16.2207 31.2513 15.314 41.662 11.6407 51.0031C9.84464 55.5684 7.46467 57.6233 4.55935 61.2324C1.04628 65.5951 -0.543012 72.0112 2.80338 76.959C7.78744 84.3283 16.9116 81.3765 21.9406 75.6207C27.2142 69.5844 25.7648 61.218 28.0208 54.0592C31.4208 43.2751 43.0795 41.4911 52.3583 38.2139C64.1995 34.0311 71.0662 24.3245 66.2276 11.6193C64.8353 7.96486 62.6276 4.90343 60.2167 2H9.3344Z" fill="#53C2BE"/>
<path d="M139.946 285.086C116.179 281.501 91.4702 289.058 68.0859 283.133C52.8741 279.279 39.7274 270.328 25.3421 259.893L24.1621 259.037C16.3865 253.395 8.45442 247.641 0 242.86V394.88C14.3698 404.269 32.2583 406.749 49.1153 404.371C65.1779 402.105 78.2166 391.612 93.7659 387.906C120.565 381.519 146.686 399.355 172.83 390.95C210.445 378.855 210.261 329.65 185.563 305.502C173.261 293.474 156.722 287.617 139.946 285.086Z" fill="#2B374E"/>
<path d="M0 551.625C1.12176 552.502 2.33498 553.257 3.65479 553.85C10.1866 556.785 17.5695 558.004 24.1066 554.299C32.2186 549.702 36.3934 540.081 38.9201 531.55C43.2306 516.99 40.5789 503.335 39.648 488.67C38.9522 477.717 37.2 467.745 39.3815 456.849C40.6375 450.572 42.8508 444.515 46.0989 438.99C48.7026 434.562 51.4533 428.311 44.9601 425.224C39.9734 422.852 34.6201 425.388 31.0269 427.503C18.7733 434.712 8.07307 445.419 0 457.96V551.625Z" fill="#2B374E"/>
<path d="M0 208.591C5.62167 203.2 7.46002 194.171 6.03968 185.922C5.17341 180.887 3.01077 176.562 0 172.898V208.591Z" fill="#2B374E"/>
<path d="M82.8627 2C84.805 3.7503 86.6956 5.57015 88.4383 7.57519C97.6248 18.1393 100.71 31.7381 88.0887 41.1208C85.3089 43.1874 81.1223 45.4581 77.5207 45.2699C73.1955 45.0432 69.9409 41.6182 65.3794 43.6822C57.4303 47.2791 61.6902 57.9193 67.9196 60.8741C76.2727 64.8339 87.4193 62.4781 96.1822 61.3072C117.772 58.4208 144.207 48.0513 144.489 22.2753C144.567 15.0231 142.092 7.82161 137.794 2H82.8627Z" fill="#2B374E"/>
<path d="M0 143.784C0.655748 143.318 1.28617 142.817 1.88295 142.293C7.92566 136.987 10.591 130.186 11.4777 122.3C12.0631 117.105 13.1233 110.976 11.7324 105.868C9.9205 99.212 4.64882 97.2262 0 98.9428V143.784Z" fill="#2B374E"/>
<path d="M233.128 454.334C224.314 441.513 212.817 436.987 198.88 431.612C181.576 424.942 163.35 419.274 146.902 410.695C138.941 406.539 130.708 402.244 121.901 399.478C105.542 394.338 86.2916 398.634 71.2022 406.123C67.2972 408.06 63.6931 410.835 61.4582 414.579C52.6009 429.428 68.9583 442.156 80.7009 447.854C89.1036 451.932 98.1612 454.646 106.312 459.254C114.044 463.624 120.464 471.579 127.153 477.575C139.255 488.42 151.826 498.74 164.822 508.496C176.645 517.372 191.005 522.442 206.03 519.466C223.377 516.027 237.195 501.528 239.88 484.063C241.654 472.521 238.793 462.575 233.128 454.334Z" fill="#53C2BE"/>
<path d="M234.098 297.67C228.258 288.922 215.365 289.786 209.549 298.182C201.904 309.219 214.949 323.635 227.006 319.141C231.865 317.33 235.573 312.741 236.324 307.612C236.861 303.941 235.968 300.47 234.098 297.67Z" fill="#33809F"/>
<path d="M65.4509 79.8995C51.9951 77.7649 38.1325 81.9341 29.1592 95.2822C23.6365 103.498 22.8269 113.33 22.4006 122.938C21.9149 133.869 19.8952 143.074 16.8859 153.555C11.6323 171.852 27.9206 192.069 44.8684 197.326C60.4457 202.16 77.9151 183.862 86.8389 173.36C101.26 156.385 110.85 132.634 103.274 110.673C97.6978 94.5074 81.8779 82.5063 65.4509 79.8995Z" fill="#53C2BE"/>
<path d="M177.316 48.6697C174.87 39.671 164.304 36.3817 156.17 39.6294C142.315 45.16 139.9 74.7881 157.097 77.2535C169.85 79.0775 180.246 59.4413 177.316 48.6697Z" fill="#33809F"/>
<path d="M214.571 81.2056C202.617 82.7458 196.036 98.5563 208.444 105.217C214.393 108.411 222.192 106.791 226.199 101.534C230.315 96.1257 229.387 87.703 224.203 83.5017C221.613 81.4033 218.056 80.7566 214.571 81.2056Z" fill="#33809F"/>
<path d="M175.475 197.038C173.531 203.305 172.681 209.922 170.687 216.143C167.752 225.301 167.46 239.775 181.641 233.802C187.956 231.148 193.025 226.549 199.367 223.859C210.765 219.025 224.66 215.994 232.848 205.939C240.608 196.409 239.072 181.949 230.642 173.353C220.996 163.519 204.788 163.485 193.524 170.491C183.715 176.593 178.779 186.39 175.475 197.038Z" fill="#53C2BE"/>
<path d="M271.467 53.6488C265.694 40.9821 253.826 32.2302 241.723 24.8435C234.828 20.6368 228.704 15.3659 221.642 11.4526C214.509 7.50073 206.945 4.32819 199.129 2H151.285C148.885 4.70387 148.288 8.48302 150.482 12.5819C152.38 16.1275 155.774 18.6156 159.25 20.6342C164.25 23.5395 169.663 25.7449 174.406 29.0542C178.86 32.1633 180.956 36.2807 183.558 40.846C186.408 45.8516 186.602 51.1728 188.576 56.5726C190.158 60.8983 192.715 64.9941 196.48 67.6447C205.599 74.0635 214.438 69.4914 224.347 69.2662C234.5 69.0341 244.744 71.7353 253.347 77.1661C257.447 79.7555 261.836 83.0807 266.6 82.174C269.988 81.53 272.684 78.7248 273.936 75.5099C275.188 72.2954 275.187 68.7249 274.759 65.3022C274.228 61.0714 273.088 57.2061 271.467 53.6488Z" fill="#53C2BE"/>
<path d="M130.204 563.322C139.463 563.436 148.94 561.526 155.287 556.417C164.536 548.973 167.654 532.736 163.012 522.16C156.702 507.778 139.739 502.049 126.431 496.199C116.348 491.767 106.474 486.635 97.8203 479.76C93.4724 476.307 89.2068 472.423 85.823 467.999C82.5522 463.72 80.2043 458.717 75.4444 455.812C70.3643 452.712 62.0788 452.432 58.2509 457.674C52.3628 465.739 58.7215 481.513 60.9178 490.099C64.4271 503.812 69.3231 517.477 77.5711 529.107C87.139 542.597 95.1841 554.795 111.856 560.38C117.036 562.115 123.564 563.239 130.204 563.322Z" fill="#2B374E"/>
<path d="M156.249 184.638C153.601 180.876 149.937 177.655 145.113 175.281C120.006 162.926 99.5502 183.751 80.5675 196.758C71.8062 202.761 62.3691 207.776 52.4902 211.677C42.2529 215.721 28.1462 216.262 25.2341 229.309C22.0691 243.489 37.1929 252.571 47.7091 258.089C65.4702 267.409 86.0104 269.521 105.382 264.465C124.68 259.43 142.164 247.07 153.35 230.557C162.429 217.155 165.41 197.653 156.249 184.638Z" fill="#2B374E"/>
<path d="M181.984 116.458C192.531 109.171 187.384 95.0712 179.227 88.2552C172.248 82.423 163.684 82.3297 155.113 81.5363C141.467 80.2751 126.594 82.2764 123.828 98.175C122.853 103.783 123.55 109.53 124.173 115.188C125.142 123.988 126.024 133.977 121.59 142.035C118.493 147.666 108.189 152.176 111.169 159.974C114.167 167.814 128.48 163.23 133.541 160.508C141.155 156.416 147.179 149.13 149.081 140.627C150.544 134.088 148.795 127.492 154.409 122.394C162.393 115.142 173.301 122.457 181.984 116.458Z" fill="#2B374E"/>
<path d="M241.102 105.131C237.155 108.226 233.257 111.36 228.755 113.747C224.377 116.07 219.695 117.775 214.857 118.846C210.01 119.918 205.627 119.636 200.682 119.764C193.471 119.95 186.238 120.68 179.259 122.57C173.25 124.196 165.654 126.628 161.224 131.207C157.321 135.243 155.87 141.052 158.091 146.327C164.745 162.116 185.139 155.388 197.418 153.573C208.995 151.862 220.469 152.31 232.071 153.116C244.407 153.976 258.046 154.152 270.065 150.95C283.714 147.313 294.389 139.155 299.347 128.565C303.594 119.499 303.031 108.107 297.426 99.7296C291.245 90.4871 279.379 87.9775 268.991 90.2055C258.743 92.4044 249.228 98.7575 241.102 105.131Z" fill="#2B374E"/>
</svg>
