<?xml version="1.0" encoding="UTF-8"?>
<!DOCTYPE svg PUBLIC "-//W3C//DTD SVG 1.1//EN" "http://www.w3.org/Graphics/SVG/1.1/DTD/svg11.dtd">
<!-- Creator: CorelDRAW -->
<svg xmlns="http://www.w3.org/2000/svg" xml:space="preserve" width="210mm" height="297mm" version="1.1" style="shape-rendering:geometricPrecision; text-rendering:geometricPrecision; image-rendering:optimizeQuality; fill-rule:evenodd; clip-rule:evenodd"
viewBox="0 0 21000 29700"
 xmlns:xlink="http://www.w3.org/1999/xlink"
 xmlns:xodm="http://www.corel.com/coreldraw/odm/2003">
 <defs>
  <style type="text/css">
   <![CDATA[
    .fil0 {fill:#CBE3ED;fill-rule:nonzero}
   ]]>
  </style>
 </defs>
 <g id="Camada_x0020_1">
  <metadata id="CorelCorpID_0Corel-Layer"/>
  <path class="fil0" d="M15120.11 12304.74c-1510.47,766.37 -1934.45,113.53 -2240.5,-392.19 -584.66,-966.09 520.91,-1877.42 550.43,-2133.66 20.9,-181.25 -131.8,-349.23 -332.18,-365.32 -145.03,-11.62 -292.53,44.31 -342.97,154.84 -308.06,675.36 -999.91,565.88 -1225.7,357.93 -829.98,-764.27 420.77,-1170.31 503.17,-1783.08 62.62,-465.86 -925.59,-649.54 -1010.83,43.34 -77.97,633.59 -555.09,1302.16 -1185.46,1115.43 -808.86,-239.61 -967.6,-857.38 -876.08,-1626.84l-2408.77 0c610.08,1517.76 208.68,2195.75 -596.69,2368.59 -988.04,212.06 -1084.54,-407.91 -1604.39,-495.99 -23.61,-4 -47.32,-6.04 -70.9,-6.28l0 11744.74c327.29,-175.35 575.05,-455.26 705.39,-796.51 193.5,-506.73 -23.03,-917.59 1037.22,-1134.49 598,-122.36 664.22,347.43 747.41,632.2 46.89,160.57 160.86,630.8 603.24,602.65 395.85,-25.16 706.23,-210.46 484.74,-683.86 -96.55,-206.32 -12.38,-347.15 197.23,-458.17 390.49,-206.86 2075.5,-314.28 1957.05,1471.32 -45.52,686.04 851.98,1163.95 1656.07,1100.88 869.15,-68.13 1451.31,-782.05 1409.44,-1393.58 -21.81,-319.07 -436.74,-838.65 -436.74,-838.65 0,0 -1128.9,-1183.67 -442.43,-1749.34 830.75,-684.61 1321.61,180.06 1677.05,452.55 288.7,221.34 748.78,110.9 959.35,-173.77 302.7,-409.24 -285.98,-711.64 -492.89,-890.2 -637.38,-550.1 -232.45,-1526.14 686.38,-1650.64 199.37,-27.04 361.66,-166.38 385.33,-347.79 33.59,-257.46 -234.98,-295.03 -436.33,-440.29 -545.68,-393.82 -402.3,-1354.41 821.96,-1240.1 513.42,47.98 974,-397 899.91,-866.96 -178.22,-1130.46 -1450.21,-641.85 -1578.51,-576.76z"/>
 </g>
</svg>
