<svg width="798" height="803" viewBox="0 0 798 803" fill="none" xmlns="http://www.w3.org/2000/svg">
<path d="M724.05 353.016C654.225 388.443 634.626 358.264 620.478 334.886C593.451 290.226 644.558 248.098 645.923 236.253C646.889 227.874 639.83 220.109 630.567 219.365C623.863 218.828 617.044 221.414 614.713 226.523C600.472 257.743 568.49 252.682 558.052 243.069C519.684 207.739 577.503 188.969 581.312 160.642C584.207 139.107 538.525 130.616 534.584 162.646C530.98 191.935 508.924 222.841 479.784 214.209C423.496 197.535 435.303 141.252 452.177 81.0553C463.122 42.0057 453.354 0 369.792 0C302.707 0 284.956 55.836 305 91.7975C362.865 195.615 345.075 238.9 300.351 248.498C254.677 258.301 250.216 229.641 226.185 225.57C216.77 223.975 206.972 229.03 204.545 237.426C199.054 256.416 227.284 269.911 211.187 286.137C177.482 320.114 151.407 273.925 116.337 241.371C108.749 234.327 95.6753 234.378 83.9853 234.68C49.3393 235.574 16.5287 261.213 19.7413 292.486C28.4798 377.546 171.593 339.776 174.896 385.562C176.921 413.627 147.843 405.462 127.585 403.621C111.874 402.194 99.6144 418.374 105.714 432.612C109.567 441.61 120.123 446.807 130.663 445.42C180.235 438.895 183.946 461.609 174.13 480.387C163.538 500.65 107.203 499.807 68.5141 482.919C37.5134 469.386 0 488.764 0 520.921C0 554.041 37.8436 572.791 68.172 559.455C143.933 526.14 177.256 566.043 185.07 593.841C201.08 650.794 102.627 643.108 104.203 707.895C105.108 745.104 139.245 775.38 180.26 777.341C216.157 779.058 244.653 759.825 255.515 731.385C264.46 707.961 254.451 688.968 303.463 678.941C331.107 673.285 334.168 695.002 338.014 708.166C340.182 715.589 345.45 737.326 365.9 736.025C384.199 734.862 398.547 726.296 388.308 704.412C383.845 694.874 387.736 688.364 397.426 683.232C415.477 673.669 493.37 668.704 487.894 751.247C485.79 782.961 527.279 805.053 564.45 802.138C604.628 798.988 631.54 765.986 629.604 737.716C628.596 722.967 609.415 698.948 609.415 698.948C609.415 698.948 557.229 644.23 588.963 618.081C627.366 586.433 650.057 626.404 666.488 639.001C679.834 649.233 701.102 644.127 710.836 630.968C724.829 612.05 697.616 598.071 688.051 589.816C658.587 564.387 677.306 519.267 719.781 513.512C728.997 512.262 736.499 505.821 737.593 497.435C739.146 485.533 726.731 483.796 717.423 477.081C692.198 458.876 698.826 414.471 755.42 419.755C779.154 421.973 800.445 401.403 797.02 379.678C788.782 327.42 729.981 350.007 724.05 353.016Z" fill="#CBE3ED"/>
</svg>
